<svg xmlns="http://www.w3.org/2000/svg" viewBox="0 0 1091.43 350.25"><defs><style>.cls-1{fill:#1c1c1b;}.cls-2{fill:#ababe8;}.cls-3{fill:#5e5e5e;}.cls-4{fill:#ddddfb;}</style></defs><title>recursos-graficos-banner</title><g id="Capa_2" data-name="Capa 2"><g id="iconos"><path class="cls-1" d="M235.27,3.79c0-5-7.87-5.06-7.86,0S235.27,8.85,235.27,3.79Z"/><path class="cls-1" d="M235.3,38.13c0-5.06-7.86-5.06-7.86,0S235.3,43.19,235.3,38.13Z"/><path class="cls-1" d="M235.33,72.47c0-5.06-7.86-5.06-7.86,0S235.34,77.53,235.33,72.47Z"/><path class="cls-1" d="M235.36,106.8c0-5-7.86-5-7.85,0S235.37,111.87,235.36,106.8Z"/><path class="cls-1" d="M235.4,141.14c0-5-7.86-5-7.86,0S235.4,146.21,235.4,141.14Z"/><path class="cls-1" d="M235.43,175.48c0-5-7.86-5.06-7.86,0S235.43,180.54,235.43,175.48Z"/><path class="cls-1" d="M202.78,3.82c0-5-7.86-5-7.86,0S202.78,8.89,202.78,3.82Z"/><path class="cls-1" d="M202.81,38.16c0-5.06-7.86-5.06-7.85,0S202.82,43.22,202.81,38.16Z"/><path class="cls-1" d="M202.84,72.5c0-5.06-7.86-5.06-7.85,0S202.85,77.56,202.84,72.5Z"/><path class="cls-1" d="M202.88,106.84c0-5.06-7.86-5.06-7.86,0S202.88,111.9,202.88,106.84Z"/><path class="cls-1" d="M202.91,141.17c0-5-7.86-5-7.86,0S202.91,146.24,202.91,141.17Z"/><path class="cls-1" d="M202.94,175.51c0-5-7.86-5-7.85,0S203,180.58,202.94,175.51Z"/><path class="cls-1" d="M170.29,3.85c0-5-7.86-5-7.85,0S170.3,8.92,170.29,3.85Z"/><path class="cls-1" d="M170.32,38.19c0-5-7.86-5.06-7.85,0S170.33,43.25,170.32,38.19Z"/><path class="cls-1" d="M170.36,72.53c0-5.06-7.86-5.06-7.86,0S170.36,77.59,170.36,72.53Z"/><path class="cls-1" d="M170.39,106.87c0-5.06-7.86-5.06-7.86,0S170.39,111.93,170.39,106.87Z"/><path class="cls-1" d="M170.42,141.2c0-5-7.86-5-7.85,0S170.43,146.27,170.42,141.2Z"/><path class="cls-1" d="M170.46,175.54c0-5-7.87-5-7.86,0S170.46,180.61,170.46,175.54Z"/><path class="cls-1" d="M137.8,3.88c0-5-7.86-5-7.85,0S137.81,9,137.8,3.88Z"/><path class="cls-1" d="M137.84,38.22c0-5-7.86-5-7.86,0S137.84,43.29,137.84,38.22Z"/><path class="cls-1" d="M137.87,72.56c0-5.06-7.86-5.06-7.86,0S137.87,77.62,137.87,72.56Z"/><path class="cls-1" d="M137.9,106.9c0-5.06-7.86-5.06-7.85,0S137.91,112,137.9,106.9Z"/><path class="cls-1" d="M137.94,141.24c0-5.06-7.87-5.06-7.86,0S137.94,146.3,137.94,141.24Z"/><path class="cls-1" d="M138,175.57c0-5-7.86-5-7.86,0S138,180.64,138,175.57Z"/><path class="cls-1" d="M105.32,3.91c0-5-7.86-5-7.86,0S105.32,9,105.32,3.91Z"/><path class="cls-1" d="M105.35,38.25c0-5-7.86-5-7.86,0S105.36,43.32,105.35,38.25Z"/><path class="cls-1" d="M105.38,72.59c0-5-7.86-5.06-7.85,0S105.39,77.65,105.38,72.59Z"/><path class="cls-1" d="M105.42,106.93c0-5.06-7.87-5.06-7.86,0S105.42,112,105.42,106.93Z"/><path class="cls-1" d="M105.45,141.27c0-5.06-7.86-5.06-7.86,0S105.45,146.33,105.45,141.27Z"/><path class="cls-1" d="M105.48,175.6c0-5-7.86-5-7.86,0S105.49,180.67,105.48,175.6Z"/><path class="cls-1" d="M72.83,4C72.83-1.11,65-1.11,65,4S72.84,9,72.83,4Z"/><path class="cls-1" d="M72.86,38.28c0-5.05-7.86-5.05-7.85,0S72.87,43.35,72.86,38.28Z"/><path class="cls-1" d="M72.9,72.62c0-5.05-7.87-5.05-7.86,0S72.9,77.69,72.9,72.62Z"/><path class="cls-1" d="M72.93,107c0-5.06-7.86-5.06-7.86,0S72.93,112,72.93,107Z"/><path class="cls-1" d="M73,141.3c0-5.06-7.86-5.06-7.85,0S73,146.36,73,141.3Z"/><path class="cls-1" d="M73,175.64c0-5.06-7.86-5.06-7.85,0S73,180.7,73,175.64Z"/><path class="cls-1" d="M40.34,4c0-5.06-7.86-5.06-7.85,0S40.35,9,40.34,4Z"/><path class="cls-1" d="M40.38,38.31c0-5.05-7.86-5.05-7.86,0S40.38,43.38,40.38,38.31Z"/><path class="cls-1" d="M40.41,72.65c0-5.05-7.86-5.05-7.86,0S40.41,77.72,40.41,72.65Z"/><path class="cls-1" d="M40.44,107c0-5-7.86-5.06-7.85,0S40.45,112.05,40.44,107Z"/><path class="cls-1" d="M40.47,141.33c0-5.06-7.86-5.06-7.85,0S40.48,146.39,40.47,141.33Z"/><path class="cls-1" d="M40.51,175.67c0-5.06-7.86-5.06-7.86,0S40.51,180.73,40.51,175.67Z"/><path class="cls-1" d="M7.86,4C7.85-1,0-1,0,4S7.86,9.07,7.86,4Z"/><path class="cls-1" d="M7.89,38.35c0-5.06-7.86-5.06-7.86,0S7.89,43.41,7.89,38.35Z"/><path class="cls-1" d="M7.92,72.68c0-5.05-7.86-5.05-7.85,0S7.93,77.75,7.92,72.68Z"/><path class="cls-1" d="M8,107c0-5-7.86-5-7.85,0S8,112.08,8,107Z"/><path class="cls-1" d="M8,141.36c0-5.06-7.86-5.06-7.86,0S8,146.42,8,141.36Z"/><path class="cls-1" d="M8,175.7c0-5.06-7.86-5.06-7.86,0S8,180.76,8,175.7Z"/><path class="cls-2" d="M539.46,126.62C533.4,120.56,524,130,530,136S545.53,132.69,539.46,126.62Z"/><path class="cls-2" d="M499.79,105.92c-6.06-6.06-15.49,3.35-9.42,9.42S505.86,112,499.79,105.92Z"/><path class="cls-2" d="M455.72,124.39c-6.06-6.06-15.49,3.35-9.42,9.42S461.79,130.46,455.72,124.39Z"/><path class="cls-2" d="M436.23,170.85c-6.06-6.06-15.49,3.35-9.42,9.42S442.3,176.92,436.23,170.85Z"/><path class="cls-2" d="M453,207c-6.06-6.06-15.49,3.35-9.42,9.42S459.07,213.05,453,207Z"/><path class="cls-2" d="M493.52,223.42c-6.06-6.06-15.49,3.35-9.42,9.42S499.59,229.49,493.52,223.42Z"/><path class="cls-2" d="M533,206.49c-6.06-6.06-15.49,3.35-9.42,9.42S539.1,212.56,533,206.49Z"/><path class="cls-2" d="M554.06,168.33c-6.06-6.06-15.49,3.35-9.42,9.42S560.13,174.4,554.06,168.33Z"/><path class="cls-2" d="M506.62,126.12c-6.06-6.06-15.49,3.35-9.42,9.42S512.69,132.2,506.62,126.12Z"/><path class="cls-2" d="M470.86,151.9c-6.06-6.06-15.49,3.35-9.42,9.42S476.93,158,470.86,151.9Z"/><path class="cls-2" d="M478.59,185.13c-6.06-6.06-15.49,3.35-9.42,9.42S484.66,191.2,478.59,185.13Z"/><path class="cls-2" d="M522.65,177.12c-6.06-6.06-15.49,3.34-9.42,9.42S528.72,183.19,522.65,177.12Z"/><path class="cls-2" d="M528.36,158.82c-6.07-6.07-15.49,3.34-9.42,9.41S534.43,164.89,528.36,158.82Z"/><path class="cls-2" d="M491.17,159.71c-6.06-6.06-15.49,3.35-9.42,9.42S497.24,165.78,491.17,159.71Z"/><path class="cls-2" d="M515.84,215.26c-6.06-6.06-15.49,3.35-9.42,9.42S521.91,221.33,515.84,215.26Z"/><path class="cls-2" d="M478.82,119.22a6,6,0,0,0,0-5,5.15,5.15,0,0,0-1.41-2.22L476,110.94a6.66,6.66,0,0,0-3.29-.87l-1.69.22a6.6,6.6,0,0,0-3,1.73l-1,1a7.39,7.39,0,0,0-2,4.71,7.53,7.53,0,0,0,2,4.71l1.42,1.08a6.69,6.69,0,0,0,3.29.87l1.69-.22a6.6,6.6,0,0,0,3-1.73l1-1A5,5,0,0,0,478.82,119.22Z"/><path class="cls-2" d="M442.33,145.26c-6.06-6.06-15.48,3.35-9.41,9.42S448.41,151.33,442.33,145.26Z"/><path class="cls-2" d="M442.83,188.67c-6.06-6.06-15.49,3.35-9.42,9.42S448.9,194.74,442.83,188.67Z"/><path class="cls-2" d="M471.31,219.19c-6.06-6.06-15.49,3.34-9.42,9.42S477.38,225.26,471.31,219.19Z"/><path class="cls-2" d="M509,146.3c-6.06-6.06-15.49,3.35-9.42,9.42S515.05,152.37,509,146.3Z"/><path class="cls-2" d="M547.66,195.87a6,6,0,0,0,0-5,5.15,5.15,0,0,0-1.41-2.22l-1.42-1.08a6.56,6.56,0,0,0-3.29-.87l-1.69.22a6.6,6.6,0,0,0-3,1.73l-1,1a7.53,7.53,0,0,0-1.95,4.71,5.09,5.09,0,0,0,.54,2.49,5.15,5.15,0,0,0,1.41,2.22l1.42,1.08a6.69,6.69,0,0,0,3.29.87l1.69-.22a6.69,6.69,0,0,0,3-1.73l1-1A5,5,0,0,0,547.66,195.87Z"/><path class="cls-2" d="M548,146.61c-6.06-6.06-15.49,3.34-9.42,9.41S554,152.68,548,146.61Z"/><path class="cls-2" d="M522.17,111.69c-6.07-6.06-15.49,3.35-9.42,9.42S528.24,117.76,522.17,111.69Z"/><path class="cls-2" d="M486.2,133c-6.06-6.06-15.49,3.35-9.42,9.42S492.27,139.09,486.2,133Z"/><path class="cls-2" d="M465.05,169.88c-6.06-6.06-15.49,3.35-9.42,9.42S471.12,176,465.05,169.88Z"/><path class="cls-2" d="M501.6,192.09c-6.06-6.06-15.49,3.35-9.42,9.42S507.67,198.16,501.6,192.09Z"/><path class="cls-3" d="M977.27,172.79c0-5-7.87-5.06-7.86,0S977.27,177.85,977.27,172.79Z"/><path class="cls-3" d="M977.3,207.13c0-5.06-7.86-5.06-7.86,0S977.3,212.19,977.3,207.13Z"/><path class="cls-3" d="M977.33,241.47c0-5.06-7.86-5.06-7.86,0S977.34,246.53,977.33,241.47Z"/><path class="cls-3" d="M977.36,275.8c0-5.05-7.86-5.05-7.85,0S977.37,280.87,977.36,275.8Z"/><path class="cls-3" d="M977.4,310.14c0-5.05-7.86-5.05-7.86,0S977.4,315.21,977.4,310.14Z"/><path class="cls-3" d="M977.43,344.48c0-5.05-7.86-5.06-7.86,0S977.43,349.54,977.43,344.48Z"/><path class="cls-3" d="M944.78,172.82c0-5-7.86-5-7.86,0S944.78,177.89,944.78,172.82Z"/><path class="cls-3" d="M944.81,207.16c0-5.06-7.86-5.06-7.85,0S944.82,212.22,944.81,207.16Z"/><path class="cls-3" d="M944.84,241.5c0-5.06-7.86-5.06-7.85,0S944.85,246.56,944.84,241.5Z"/><path class="cls-3" d="M944.88,275.84c0-5.06-7.86-5.06-7.86,0S944.88,280.9,944.88,275.84Z"/><path class="cls-3" d="M944.91,310.17c0-5.05-7.86-5.05-7.86,0S944.91,315.24,944.91,310.17Z"/><path class="cls-3" d="M944.94,344.51c0-5.05-7.86-5.05-7.85,0S945,349.58,944.94,344.51Z"/><path class="cls-3" d="M912.29,172.85c0-5-7.86-5-7.85,0S912.3,177.92,912.29,172.85Z"/><path class="cls-3" d="M912.32,207.19c0-5.05-7.86-5.06-7.85,0S912.33,212.25,912.32,207.19Z"/><path class="cls-3" d="M912.36,241.53c0-5.06-7.86-5.06-7.86,0S912.36,246.59,912.36,241.53Z"/><path class="cls-3" d="M912.39,275.87c0-5.06-7.86-5.06-7.86,0S912.39,280.93,912.39,275.87Z"/><path class="cls-3" d="M912.42,310.2c0-5.05-7.86-5.05-7.85,0S912.43,315.27,912.42,310.2Z"/><path class="cls-3" d="M912.46,344.54c0-5.05-7.87-5.05-7.86,0S912.46,349.61,912.46,344.54Z"/><path class="cls-3" d="M879.8,172.88c0-5-7.86-5-7.85,0S879.81,178,879.8,172.88Z"/><path class="cls-3" d="M879.84,207.22c0-5.05-7.86-5.05-7.86,0S879.84,212.29,879.84,207.22Z"/><path class="cls-3" d="M879.87,241.56c0-5.06-7.86-5.06-7.86,0S879.87,246.62,879.87,241.56Z"/><path class="cls-3" d="M879.9,275.9c0-5.06-7.86-5.06-7.85,0S879.91,281,879.9,275.9Z"/><path class="cls-3" d="M879.94,310.24c0-5.06-7.87-5.06-7.86,0S879.94,315.3,879.94,310.24Z"/><path class="cls-3" d="M880,344.57c0-5.05-7.86-5.05-7.86,0S880,349.64,880,344.57Z"/><path class="cls-3" d="M847.32,172.91c0-5-7.86-5-7.86,0S847.32,178,847.32,172.91Z"/><path class="cls-3" d="M847.35,207.25c0-5.05-7.86-5.05-7.86,0S847.36,212.32,847.35,207.25Z"/><path class="cls-3" d="M847.38,241.59c0-5.05-7.86-5.06-7.85,0S847.39,246.65,847.38,241.59Z"/><path class="cls-3" d="M847.42,275.93c0-5.06-7.87-5.06-7.86,0S847.42,281,847.42,275.93Z"/><path class="cls-3" d="M847.45,310.27c0-5.06-7.86-5.06-7.86,0S847.45,315.33,847.45,310.27Z"/><path class="cls-3" d="M847.48,344.6c0-5.05-7.86-5.05-7.86,0S847.49,349.67,847.48,344.6Z"/><path class="cls-3" d="M814.83,173c0-5.06-7.86-5.06-7.86,0S814.84,178,814.83,173Z"/><path class="cls-3" d="M814.86,207.28c0-5.05-7.86-5.05-7.85,0S814.87,212.35,814.86,207.28Z"/><path class="cls-3" d="M814.9,241.62c0-5.05-7.87-5.05-7.86,0S814.9,246.69,814.9,241.62Z"/><path class="cls-3" d="M814.93,276c0-5.06-7.86-5.06-7.86,0S814.93,281,814.93,276Z"/><path class="cls-3" d="M815,310.3c0-5.06-7.86-5.06-7.85,0S815,315.36,815,310.3Z"/><path class="cls-3" d="M815,344.64c0-5.06-7.86-5.06-7.85,0S815,349.7,815,344.64Z"/><path class="cls-3" d="M782.34,173c0-5.06-7.86-5.06-7.85,0S782.35,178,782.34,173Z"/><path class="cls-3" d="M782.38,207.31c0-5.05-7.86-5.05-7.86,0S782.38,212.38,782.38,207.31Z"/><path class="cls-3" d="M782.41,241.65c0-5.05-7.86-5.05-7.86,0S782.41,246.72,782.41,241.65Z"/><path class="cls-3" d="M782.44,276c0-5.05-7.86-5.06-7.85,0S782.45,281.05,782.44,276Z"/><path class="cls-3" d="M782.47,310.33c0-5.06-7.86-5.06-7.85,0S782.48,315.39,782.47,310.33Z"/><path class="cls-3" d="M782.51,344.67c0-5.06-7.86-5.06-7.86,0S782.51,349.73,782.51,344.67Z"/><path class="cls-3" d="M749.86,173c0-5.06-7.86-5.06-7.86,0S749.86,178.07,749.86,173Z"/><path class="cls-3" d="M749.89,207.35c0-5.06-7.86-5.06-7.86,0S749.89,212.41,749.89,207.35Z"/><path class="cls-3" d="M749.92,241.68c0-5.05-7.86-5.05-7.85,0S749.93,246.75,749.92,241.68Z"/><path class="cls-3" d="M750,276c0-5-7.86-5-7.85,0S750,281.08,750,276Z"/><path class="cls-3" d="M750,310.36c0-5.06-7.86-5.06-7.86,0S750,315.42,750,310.36Z"/><path class="cls-3" d="M750,344.7c0-5.06-7.86-5.06-7.86,0S750,349.76,750,344.7Z"/><path class="cls-4" d="M1091.27,121.79c0-5.05-7.87-5.06-7.86,0S1091.27,126.85,1091.27,121.79Z"/><path class="cls-4" d="M1091.3,156.13c0-5.06-7.86-5.06-7.86,0S1091.3,161.19,1091.3,156.13Z"/><path class="cls-4" d="M1091.33,190.47c0-5.06-7.86-5.06-7.86,0S1091.34,195.53,1091.33,190.47Z"/><path class="cls-4" d="M1091.36,224.8c0-5.05-7.86-5.05-7.85,0S1091.37,229.87,1091.36,224.8Z"/><path class="cls-4" d="M1091.4,259.14c0-5-7.86-5-7.86,0S1091.4,264.21,1091.4,259.14Z"/><path class="cls-4" d="M1091.43,293.48c0-5.05-7.86-5.06-7.86,0S1091.43,298.54,1091.43,293.48Z"/><path class="cls-4" d="M1058.78,121.82c0-5-7.86-5-7.86,0S1058.78,126.89,1058.78,121.82Z"/><path class="cls-4" d="M1058.81,156.16c0-5.06-7.86-5.06-7.85,0S1058.82,161.22,1058.81,156.16Z"/><path class="cls-4" d="M1058.84,190.5c0-5.06-7.86-5.06-7.85,0S1058.85,195.56,1058.84,190.5Z"/><path class="cls-4" d="M1058.88,224.84c0-5.06-7.86-5.06-7.86,0S1058.88,229.9,1058.88,224.84Z"/><path class="cls-4" d="M1058.91,259.17c0-5.05-7.86-5.05-7.86,0S1058.91,264.24,1058.91,259.17Z"/><path class="cls-4" d="M1058.94,293.51c0-5.05-7.86-5.05-7.85,0S1059,298.58,1058.94,293.51Z"/><path class="cls-4" d="M1026.29,121.85c0-5-7.86-5-7.85,0S1026.3,126.92,1026.29,121.85Z"/><path class="cls-4" d="M1026.32,156.19c0-5.05-7.86-5.06-7.85,0S1026.33,161.25,1026.32,156.19Z"/><path class="cls-4" d="M1026.36,190.53c0-5.06-7.86-5.06-7.86,0S1026.36,195.59,1026.36,190.53Z"/><path class="cls-4" d="M1026.39,224.87c0-5.06-7.86-5.06-7.86,0S1026.39,229.93,1026.39,224.87Z"/><path class="cls-4" d="M1026.42,259.2c0-5-7.86-5-7.85,0S1026.43,264.27,1026.42,259.2Z"/><path class="cls-4" d="M1026.46,293.54c0-5.05-7.87-5.05-7.86,0S1026.46,298.61,1026.46,293.54Z"/><path class="cls-4" d="M993.8,121.88c0-5-7.86-5-7.85,0S993.81,127,993.8,121.88Z"/><path class="cls-4" d="M993.84,156.22c0-5.05-7.86-5.05-7.86,0S993.84,161.29,993.84,156.22Z"/><path class="cls-4" d="M993.87,190.56c0-5.06-7.86-5.06-7.86,0S993.87,195.62,993.87,190.56Z"/><path class="cls-4" d="M993.9,224.9c0-5.06-7.86-5.06-7.85,0S993.91,230,993.9,224.9Z"/><path class="cls-4" d="M993.94,259.24c0-5.06-7.87-5.06-7.86,0S993.94,264.3,993.94,259.24Z"/><path class="cls-4" d="M994,293.57c0-5.05-7.86-5.05-7.86,0S994,298.64,994,293.57Z"/><path class="cls-4" d="M961.32,121.91c0-5-7.86-5-7.86,0S961.32,127,961.32,121.91Z"/><path class="cls-4" d="M961.35,156.25c0-5.05-7.86-5.05-7.86,0S961.36,161.32,961.35,156.25Z"/><path class="cls-4" d="M961.38,190.59c0-5.05-7.86-5.06-7.85,0S961.39,195.65,961.38,190.59Z"/><path class="cls-4" d="M961.42,224.93c0-5.06-7.87-5.06-7.86,0S961.42,230,961.42,224.93Z"/><path class="cls-4" d="M961.45,259.27c0-5.06-7.86-5.06-7.86,0S961.45,264.33,961.45,259.27Z"/><path class="cls-4" d="M961.48,293.6c0-5.05-7.86-5.05-7.86,0S961.49,298.67,961.48,293.6Z"/><path class="cls-4" d="M928.83,122c0-5.06-7.86-5.06-7.86,0S928.84,127,928.83,122Z"/><path class="cls-4" d="M928.86,156.28c0-5.05-7.86-5.05-7.85,0S928.87,161.35,928.86,156.28Z"/><path class="cls-4" d="M928.9,190.62c0-5.05-7.87-5.05-7.86,0S928.9,195.69,928.9,190.62Z"/><path class="cls-4" d="M928.93,225c0-5.06-7.86-5.06-7.86,0S928.93,230,928.93,225Z"/><path class="cls-4" d="M929,259.3c0-5.06-7.86-5.06-7.85,0S929,264.36,929,259.3Z"/><path class="cls-4" d="M929,293.64c0-5.06-7.86-5.06-7.85,0S929,298.7,929,293.64Z"/><path class="cls-4" d="M896.34,122c0-5.06-7.86-5.06-7.85,0S896.35,127,896.34,122Z"/><path class="cls-4" d="M896.38,156.31c0-5.05-7.86-5.05-7.86,0S896.38,161.38,896.38,156.31Z"/><path class="cls-4" d="M896.41,190.65c0-5.05-7.86-5.05-7.86,0S896.41,195.72,896.41,190.65Z"/><path class="cls-4" d="M896.44,225c0-5.05-7.86-5.06-7.85,0S896.45,230.05,896.44,225Z"/><path class="cls-4" d="M896.47,259.33c0-5.06-7.86-5.06-7.85,0S896.48,264.39,896.47,259.33Z"/><path class="cls-4" d="M896.51,293.67c0-5.06-7.86-5.06-7.86,0S896.51,298.73,896.51,293.67Z"/><path class="cls-4" d="M863.86,122c0-5.06-7.86-5.06-7.86,0S863.86,127.07,863.86,122Z"/><path class="cls-4" d="M863.89,156.35c0-5.06-7.86-5.06-7.86,0S863.89,161.41,863.89,156.35Z"/><path class="cls-4" d="M863.92,190.68c0-5.05-7.86-5.05-7.85,0S863.93,195.75,863.92,190.68Z"/><path class="cls-4" d="M864,225c0-5.05-7.86-5.05-7.85,0S864,230.08,864,225Z"/><path class="cls-4" d="M864,259.36c0-5.06-7.86-5.06-7.86,0S864,264.42,864,259.36Z"/><path class="cls-4" d="M864,293.7c0-5.06-7.86-5.06-7.86,0S864,298.76,864,293.7Z"/><path class="cls-2" d="M613.42,278.58c-4-4-10.27,2.22-6.24,6.24S617.44,282.6,613.42,278.58Z"/><path class="cls-2" d="M587.13,264.87c-4-4-10.26,2.21-6.24,6.24S591.16,268.89,587.13,264.87Z"/><path class="cls-2" d="M557.94,277.1c-4-4-10.26,2.22-6.24,6.24S562,281.13,557.94,277.1Z"/><path class="cls-2" d="M545,307.89c-4-4-10.27,2.21-6.24,6.24S549.05,311.91,545,307.89Z"/><path class="cls-2" d="M556.13,331.82c-4-4-10.26,2.22-6.24,6.24S560.16,335.84,556.13,331.82Z"/><path class="cls-2" d="M583,342.71c-4-4-10.26,2.22-6.24,6.24S587,346.73,583,342.71Z"/><path class="cls-2" d="M609.16,331.5c-4-4-10.27,2.21-6.24,6.24S613.18,335.52,609.16,331.5Z"/><path class="cls-2" d="M623.09,306.21c-4-4-10.26,2.22-6.24,6.24S627.11,310.23,623.09,306.21Z"/><path class="cls-2" d="M591.66,278.25c-4-4-10.26,2.22-6.24,6.24S595.68,282.27,591.66,278.25Z"/><path class="cls-2" d="M568,295.33c-4-4-10.27,2.22-6.24,6.24S572,299.35,568,295.33Z"/><path class="cls-2" d="M573.09,317.34c-4-4-10.26,2.22-6.24,6.24S577.11,321.37,573.09,317.34Z"/><path class="cls-2" d="M602.28,312c-4-4-10.26,2.21-6.24,6.24S606.3,316.06,602.28,312Z"/><path class="cls-2" d="M606.06,299.91c-4-4-10.26,2.22-6.24,6.24S610.08,303.93,606.06,299.91Z"/><path class="cls-2" d="M581.42,300.5c-4-4-10.26,2.22-6.24,6.24S585.45,304.53,581.42,300.5Z"/><path class="cls-2" d="M597.77,337.31c-4-4-10.26,2.22-6.24,6.24S601.79,341.33,597.77,337.31Z"/><path class="cls-2" d="M573.24,273.68a4,4,0,0,0,0-3.3,3.36,3.36,0,0,0-.93-1.47l-.94-.72a4.41,4.41,0,0,0-2.18-.57l-1.12.14a4.34,4.34,0,0,0-2,1.15l-.68.67a3.48,3.48,0,0,0-.93,1.47,3.37,3.37,0,0,0-.36,1.65,3.33,3.33,0,0,0,.36,1.65,3.36,3.36,0,0,0,.93,1.47l.94.72a4.41,4.41,0,0,0,2.18.57l1.12-.14a4.34,4.34,0,0,0,2-1.15l.68-.67A3.42,3.42,0,0,0,573.24,273.68Z"/><path class="cls-2" d="M549.07,290.93c-4-4-10.26,2.22-6.24,6.24S553.09,295,549.07,290.93Z"/><path class="cls-2" d="M549.4,319.69c-4-4-10.27,2.22-6.24,6.24S553.42,323.71,549.4,319.69Z"/><path class="cls-2" d="M568.26,339.91c-4-4-10.26,2.22-6.24,6.24S572.29,343.93,568.26,339.91Z"/><path class="cls-2" d="M593.22,291.62c-4-4-10.26,2.22-6.24,6.24S597.24,295.64,593.22,291.62Z"/><path class="cls-2" d="M618.85,324.46a4,4,0,0,0,0-3.3,3.36,3.36,0,0,0-.93-1.47L617,319a4.41,4.41,0,0,0-2.18-.57l-1.12.14a4.42,4.42,0,0,0-2,1.15l-.68.67a3.45,3.45,0,0,0-.93,1.48,3.94,3.94,0,0,0,0,3.29,3.45,3.45,0,0,0,.93,1.48c.32.23.63.47.94.71a4.53,4.53,0,0,0,2.18.58l1.12-.15a4.25,4.25,0,0,0,2-1.15l.68-.67A3.36,3.36,0,0,0,618.85,324.46Z"/><path class="cls-2" d="M619.05,291.82c-4-4-10.27,2.22-6.24,6.24S623.07,295.84,619.05,291.82Z"/><path class="cls-2" d="M602,268.69c-4-4-10.26,2.22-6.24,6.24S606,272.71,602,268.69Z"/><path class="cls-2" d="M578.13,282.82c-4-4-10.26,2.22-6.24,6.24S582.15,286.84,578.13,282.82Z"/><path class="cls-2" d="M564.12,307.24c-4-4-10.26,2.22-6.24,6.24S568.14,311.26,564.12,307.24Z"/><path class="cls-2" d="M588.33,322c-4-4-10.26,2.22-6.24,6.24S592.36,326,588.33,322Z"/><path class="cls-2" d="M679.38,181.24c-2.64-2.64-6.75,1.46-4.11,4.11S682,183.89,679.38,181.24Z"/><path class="cls-2" d="M662.08,172.21c-2.64-2.64-6.75,1.46-4.11,4.11S664.73,174.86,662.08,172.21Z"/><path class="cls-2" d="M642.87,180.27c-2.65-2.65-6.76,1.46-4.11,4.1S645.51,182.91,642.87,180.27Z"/><path class="cls-2" d="M634.37,200.53c-2.65-2.64-6.76,1.46-4.11,4.11S637,203.18,634.37,200.53Z"/><path class="cls-2" d="M641.68,216.28c-2.65-2.64-6.76,1.46-4.11,4.11S644.32,218.93,641.68,216.28Z"/><path class="cls-2" d="M659.35,223.45c-2.64-2.64-6.76,1.46-4.11,4.11S662,226.1,659.35,223.45Z"/><path class="cls-2" d="M676.58,216.07c-2.65-2.64-6.76,1.46-4.11,4.11S679.23,218.72,676.58,216.07Z"/><path class="cls-2" d="M685.75,199.43c-2.64-2.65-6.75,1.46-4.11,4.1S688.4,202.07,685.75,199.43Z"/><path class="cls-2" d="M665.06,181c-2.64-2.64-6.75,1.46-4.1,4.11S667.71,183.67,665.06,181Z"/><path class="cls-2" d="M649.47,192.26c-2.65-2.64-6.76,1.46-4.11,4.11S652.11,194.91,649.47,192.26Z"/><path class="cls-2" d="M652.84,206.75c-2.64-2.64-6.76,1.46-4.11,4.11S655.49,209.4,652.84,206.75Z"/><path class="cls-2" d="M672.05,203.26c-2.64-2.64-6.75,1.46-4.1,4.11S674.7,205.91,672.05,203.26Z"/><path class="cls-2" d="M674.54,195.28c-2.64-2.64-6.75,1.46-4.11,4.11S677.19,197.93,674.54,195.28Z"/><path class="cls-2" d="M658.32,195.67c-2.64-2.64-6.75,1.46-4.1,4.11S661,198.32,658.32,195.67Z"/><path class="cls-2" d="M669.08,219.89c-2.64-2.64-6.75,1.46-4.1,4.11S671.73,222.54,669.08,219.89Z"/><path class="cls-2" d="M652.94,178a2.67,2.67,0,0,0,0-2.17,2.19,2.19,0,0,0-.62-1l-.62-.47a2.86,2.86,0,0,0-1.43-.38l-.74.1a2.83,2.83,0,0,0-1.31.75l-.45.45a2.14,2.14,0,0,0-.61,1,2.26,2.26,0,0,0-.24,1.09,2.2,2.2,0,0,0,.24,1.08,2.11,2.11,0,0,0,.61,1l.62.48a2.91,2.91,0,0,0,1.44.37l.73-.09a2.92,2.92,0,0,0,1.32-.76l.44-.44A2.19,2.19,0,0,0,652.94,178Z"/><path class="cls-2" d="M637,189.37c-2.65-2.65-6.76,1.46-4.11,4.1S639.67,192,637,189.37Z"/><path class="cls-2" d="M637.24,208.3c-2.64-2.64-6.75,1.46-4.11,4.11S639.89,211,637.24,208.3Z"/><path class="cls-2" d="M649.66,221.61c-2.64-2.65-6.75,1.46-4.11,4.1S652.31,224.25,649.66,221.61Z"/><path class="cls-2" d="M666.09,189.82c-2.64-2.64-6.76,1.46-4.11,4.11S668.74,192.47,666.09,189.82Z"/><path class="cls-2" d="M683,211.44a2.26,2.26,0,0,0,.24-1.09,2.22,2.22,0,0,0-.24-1.08,2.13,2.13,0,0,0-.62-1l-.61-.47a2.92,2.92,0,0,0-1.44-.38l-.74.09a2.94,2.94,0,0,0-1.31.76l-.45.44a3,3,0,0,0,0,4.11l.62.47a2.92,2.92,0,0,0,1.44.38l.73-.09a2.92,2.92,0,0,0,1.32-.76l.44-.44A2.24,2.24,0,0,0,683,211.44Z"/><path class="cls-2" d="M683.09,190c-2.64-2.64-6.76,1.46-4.11,4.11S685.74,192.6,683.09,190Z"/><path class="cls-2" d="M671.84,174.73c-2.64-2.64-6.75,1.46-4.11,4.11S674.49,177.38,671.84,174.73Z"/><path class="cls-2" d="M656.16,184c-2.65-2.64-6.76,1.46-4.11,4.11S658.8,186.68,656.16,184Z"/><path class="cls-2" d="M646.93,200.1c-2.64-2.64-6.75,1.46-4.1,4.11S649.58,202.75,646.93,200.1Z"/><path class="cls-2" d="M662.87,209.79c-2.64-2.64-6.75,1.46-4.11,4.11S665.52,212.44,662.87,209.79Z"/></g></g></svg>