<svg xmlns="http://www.w3.org/2000/svg" viewBox="0 0 38.86 38.86"><defs><style>.cls-1{fill:#8d8dd6;}</style></defs><title>after-effects</title><g id="Capa_2" data-name="Capa 2"><g id="iconos"><path class="cls-1" d="M38.85,38.86H.35c-.29,0-.35-.06-.35-.34Q0,19.26,0,0H38.36c.58,0,.5-.07.5.51V38.44C38.86,38.58,38.86,38.72,38.85,38.86ZM36.57,19.43c0-5.57,0-11.15,0-16.72,0-.33-.08-.42-.42-.42H2.71c-.31,0-.43,0-.43.4q0,16.76,0,33.49c0,.31.07.4.39.4H36.17c.35,0,.4-.11.4-.42Z"/><path class="cls-1" d="M18.88,26.73c-.35,0-.87.17-1.17-.08s-.34-.74-.49-1.12c-.22-.58-.44-1.16-.65-1.74a.35.35,0,0,0-.38-.28H12.25a.37.37,0,0,0-.4.31c-.31.87-.65,1.75-1,2.63a.35.35,0,0,1-.41.28c-.65,0-1.31,0-2,0-.33,0-.3-.1-.21-.34Q10,22,11.64,17.65c.45-1.18.9-2.35,1.34-3.54a.43.43,0,0,1,.49-.34c.51,0,1,0,1.52,0a.44.44,0,0,1,.5.33q2.31,6.14,4.65,12.25c.14.35.05.41-.27.38S19.26,26.73,18.88,26.73Zm-4.64-10c-.61,1.65-1.18,3.22-1.76,4.8-.08.21,0,.22.19.22,1,0,2,0,3,0,.29,0,.25-.12.18-.32-.32-.9-.63-1.81-1-2.71C14.72,18.05,14.49,17.41,14.24,16.69Z"/><path class="cls-1" d="M26.88,22.75c-1.1,0-2.2,0-3.3,0-.35,0-.39.12-.3.43A2.4,2.4,0,0,0,25.16,25a2.5,2.5,0,0,0,2.69-1,.26.26,0,0,1,.34-.13c.53.16,1.07.31,1.6.44.25.06.26.16.14.36a4.34,4.34,0,0,1-3,2.09,5.07,5.07,0,0,1-5-1.37A4.79,4.79,0,0,1,21,20a4.63,4.63,0,0,1,4.34-3,5.2,5.2,0,0,1,3,.7,4.76,4.76,0,0,1,2.27,4.79c0,.27-.19.25-.37.25Zm-1.26-1.62h2.16c.23,0,.31-.05.26-.3a2.46,2.46,0,0,0-4.84,0c-.05.27,0,.33.26.33Z"/></g></g></svg>