<svg xmlns="http://www.w3.org/2000/svg" viewBox="0 0 48.67 38.8"><defs><style>.cls-1{fill:#8d8dd6;}</style></defs><title>bootstrap</title><g id="Capa_2" data-name="Capa 2"><g id="iconos"><path class="cls-1" d="M28.25,14.65c0-1.9-1.35-3-3.72-3H20.18v6.15h3.67C26.68,17.83,28.25,16.69,28.25,14.65Zm15.92-1.08a27.14,27.14,0,0,1-.85-8.5A4.86,4.86,0,0,0,38.58,0H10.11A4.84,4.84,0,0,0,5.37,5.07a27.44,27.44,0,0,1-.85,8.5C3.69,16.25,2.3,18,0,18.17v2.46c2.29.22,3.69,1.92,4.52,4.6a27.44,27.44,0,0,1,.85,8.5,4.85,4.85,0,0,0,4.74,5.07H38.57a4.85,4.85,0,0,0,4.74-5.07,27.44,27.44,0,0,1,.85-8.5c.83-2.68,2.23-4.38,4.51-4.6V18.17C46.39,18,45,16.25,44.17,13.57ZM25.39,29.71h-8.5V9.09h8.46c3.76,0,6.23,2,6.23,5.14a4.6,4.6,0,0,1-3.78,4.48v.11a5,5,0,0,1,4.82,5.05C32.62,27.51,29.9,29.71,25.39,29.71Zm-.89-9.36H20.18v6.76h4.51c2.94,0,4.5-1.18,4.5-3.41S27.59,20.35,24.5,20.35Z"/></g></g></svg>