<svg xmlns="http://www.w3.org/2000/svg" viewBox="0 0 13.75 20"><defs><style>.cls-1{fill:#fff;}</style></defs><title>celular</title><g id="Capa_2" data-name="Capa 2"><g id="textos"><path class="cls-1" d="M2.5,0h8.75a2.5,2.5,0,0,1,2.5,2.5v15a2.5,2.5,0,0,1-2.5,2.5H2.5A2.5,2.5,0,0,1,0,17.5V2.5A2.5,2.5,0,0,1,2.5,0ZM8.13,17.49a1.25,1.25,0,1,0-1.25,1.25A1.25,1.25,0,0,0,8.13,17.49Zm3.12-15H2.5V15h8.75Z"/><path class="cls-1" d="M2.5,0h8.75a2.5,2.5,0,0,1,2.5,2.5v15a2.5,2.5,0,0,1-2.5,2.5H2.5A2.5,2.5,0,0,1,0,17.5V2.5A2.5,2.5,0,0,1,2.5,0ZM8.13,17.49a1.25,1.25,0,1,0-1.25,1.25A1.25,1.25,0,0,0,8.13,17.49Zm3.12-15H2.5V15h8.75Z"/></g></g></svg>