<svg xmlns="http://www.w3.org/2000/svg" viewBox="0 0 20 15"><defs><style>.cls-1{fill:#fff;}</style></defs><title>correo</title><g id="Capa_2" data-name="Capa 2"><g id="textos"><path class="cls-1" d="M1.88,2.5v.86L8.61,8.89a2.17,2.17,0,0,0,2.78,0l6.74-5.53V2.5a.63.63,0,0,0-.63-.62H2.5A.62.62,0,0,0,1.88,2.5Zm0,3.29V12.5a.63.63,0,0,0,.62.63h15a.64.64,0,0,0,.63-.63V5.79l-5.55,4.55a4.07,4.07,0,0,1-5.16,0ZM2.5,0h15A2.5,2.5,0,0,1,20,2.5v10A2.5,2.5,0,0,1,17.5,15H2.5A2.5,2.5,0,0,1,0,12.5V2.5A2.5,2.5,0,0,1,2.5,0Z"/><path class="cls-1" d="M1.88,2.5v.86L8.61,8.89a2.17,2.17,0,0,0,2.78,0l6.74-5.53V2.5a.63.63,0,0,0-.63-.62H2.5A.62.62,0,0,0,1.88,2.5Zm0,3.29V12.5a.63.63,0,0,0,.62.63h15a.64.64,0,0,0,.63-.63V5.79l-5.55,4.55a4.07,4.07,0,0,1-5.16,0ZM2.5,0h15A2.5,2.5,0,0,1,20,2.5v10A2.5,2.5,0,0,1,17.5,15H2.5A2.5,2.5,0,0,1,0,12.5V2.5A2.5,2.5,0,0,1,2.5,0Z"/></g></g></svg>