<svg xmlns="http://www.w3.org/2000/svg" viewBox="0 0 26.89 38.68"><defs><style>.cls-1{fill:#8d8dd6;}</style></defs><title>figma</title><g id="Capa_2" data-name="Capa 2"><g id="iconos"><path class="cls-1" d="M7.31,0H19.58a7.24,7.24,0,0,1,4.05,13.29,7.24,7.24,0,0,1-4.05,13.29H19.5a7.23,7.23,0,0,1-4.87-1.88v6.67A7.32,7.32,0,0,1,0,31.45a7.25,7.25,0,0,1,3.27-6.06,7.23,7.23,0,0,1,0-12.1A7.24,7.24,0,0,1,7.31,0Zm4.91,14.5h-5a4.87,4.87,0,1,0-.09,9.74h5.06Zm7.31,9.74h0a4.87,4.87,0,1,0,.06-9.74h-.16a4.87,4.87,0,1,0,.06,9.74ZM7.19,26.58h0a4.87,4.87,0,0,0,.07,9.73,5,5,0,0,0,5-5V26.58Zm0-24.24a4.87,4.87,0,1,0,.06,9.74h5V2.34Zm7.44,9.74h5a4.87,4.87,0,1,0,.06-9.74h-5Z"/></g></g></svg>