<svg xmlns="http://www.w3.org/2000/svg" viewBox="0 0 44.29 35.77"><defs><style>.cls-1{fill:#8d8dd6;}</style></defs><title>git</title><g id="Capa_2" data-name="Capa 2"><g id="iconos"><path class="cls-1" d="M18.73,9.44H11.86C8.4,8.53.56,8.77.56,15.92a5.62,5.62,0,0,0,3,5.28c-2.17,2-3.2,2.93-3.2,4.26a2.35,2.35,0,0,0,1.55,2.32C.7,29,0,29.79,0,31.37c0,2.78,2.43,4.4,8.8,4.4,6.13,0,9.68-2.28,9.68-6.33,0-5.08-3.91-4.9-13.13-5.46l1.16-1.87c2.37.66,10.28.87,10.28-5.88a5.66,5.66,0,0,0-1.29-3.55l3.24-.25Zm-5.5,20.94c0,2.77-9.09,2.78-9.09.21a3.14,3.14,0,0,1,.92-1.87C11.79,29.18,13.23,29,13.23,30.38ZM8.83,18.72c-4.57,0-4.37-6.16.1-6.16A3.09,3.09,0,1,1,8.83,18.72Zm11.55,8.73V24.67c2.3-.32,2.34-.17,2.34-1V13.36c0-.74-.18-.64-2.34-1.41l.38-2.86h7.33V23.72c0,.56,0,.63.56.7l1.78.25v2.78ZM24.91,6.27A2.89,2.89,0,0,1,21.75,3.1,2.84,2.84,0,0,1,24.91,0C27,0,28.12,1.09,28.12,3.1A2.91,2.91,0,0,1,24.91,6.27ZM44.29,26.05a13.88,13.88,0,0,1-5.7,1.41c-4.16,0-5.74-1.69-5.74-5.67V12.48c0-.46.09-.35-2.77-.35V9c3.13-.35,4.37-1.88,4.76-5.66h3.38c0,5.62-.12,5.28.28,5.28h4.92v3.55H38.13v8.41c0,.6-.42,4.46,5.22,2.33Z"/></g></g></svg>