<svg xmlns="http://www.w3.org/2000/svg" viewBox="0 0 39.49 38.51"><defs><style>.cls-1{fill:#8d8dd6;}</style></defs><title>github</title><g id="Capa_2" data-name="Capa 2"><g id="iconos"><path class="cls-1" d="M13.19,31c0,.16-.19.29-.42.29s-.44-.1-.44-.29.18-.28.41-.28S13.19,30.86,13.19,31Zm-2.49-.36c0,.16.11.35.35.4a.38.38,0,0,0,.49-.16c.05-.16-.1-.35-.34-.42a.41.41,0,0,0-.5.18Zm3.53-.13c-.23.05-.39.21-.36.39s.23.26.47.21.39-.21.37-.37S14.47,30.52,14.23,30.55ZM19.49,0A19.09,19.09,0,0,0,0,19.43a20,20,0,0,0,13.5,19c1,.19,1.37-.44,1.37-1s0-3.22,0-4.89c0,0-5.57,1.2-6.74-2.37,0,0-.91-2.32-2.22-2.92,0,0-1.82-1.25.13-1.22a4.2,4.2,0,0,1,3.07,2.05c1.75,3.08,4.67,2.19,5.81,1.67a4.44,4.44,0,0,1,1.27-2.69c-4.45-.49-8.94-1.13-8.94-8.79a6,6,0,0,1,1.88-4.69,7.53,7.53,0,0,1,.21-5.41c1.66-.52,5.49,2.15,5.49,2.15a18.72,18.72,0,0,1,10,0s3.83-2.68,5.49-2.15a7.47,7.47,0,0,1,.21,5.41,6.15,6.15,0,0,1,2.06,4.69c0,7.68-4.69,8.29-9.14,8.79a4.73,4.73,0,0,1,1.35,3.7c0,2.68,0,6,0,6.65s.37,1.15,1.38,1a19.79,19.79,0,0,0,13.36-19C39.49,8.38,30.54,0,19.49,0ZM7.7,27.49c-.1.08-.08.26.06.41s.31.19.41.08.08-.26-.05-.41S7.8,27.38,7.7,27.49Zm-.86-.65c-.06.11,0,.23.18.31a.23.23,0,0,0,.34,0c.06-.11,0-.23-.18-.31S6.89,26.76,6.84,26.84Zm2.59,2.85c-.13.1-.08.34.1.49s.42.21.52.08,0-.34-.1-.49S9.53,29.56,9.43,29.69Zm-.91-1.18c-.13.08-.13.29,0,.47s.34.27.44.19a.37.37,0,0,0,0-.5c-.11-.18-.32-.26-.44-.16Z"/></g></g></svg>