<svg xmlns="http://www.w3.org/2000/svg" viewBox="0 0 38.88 38.88"><defs><style>.cls-1{fill:#8d8dd6;}</style></defs><title>illustrator</title><g id="Capa_2" data-name="Capa 2"><g id="iconos"><path class="cls-1" d="M0,0H38.53c.28,0,.35.06.35.35q0,19.25,0,38.5l-.49,0q-18.9,0-37.81,0c-.64,0-.57.08-.57-.56V.5C0,.33,0,.17,0,0ZM36.57,19.45V2.8c0-.49,0-.49-.5-.49H2.8c-.37,0-.49.08-.49.48q0,16.65,0,33.3c0,.4.11.48.49.48q16.63,0,33.27,0c.5,0,.5,0,.5-.49Z"/><path class="cls-1" d="M22,26.74c-.32,0-.65,0-1,0a.39.39,0,0,1-.44-.3c-.31-.86-.64-1.71-.95-2.56a.44.44,0,0,0-.49-.35H15.37a.44.44,0,0,0-.5.34c-.3.86-.63,1.71-.93,2.56a.39.39,0,0,1-.44.31c-.65,0-1.29,0-1.94,0-.43,0-.33-.18-.23-.43q2-5.08,3.89-10.19c.26-.68.53-1.36.78-2.05a.42.42,0,0,1,.47-.33H18a.43.43,0,0,1,.48.32q2.32,6.17,4.68,12.32c.12.31,0,.38-.26.36S22.3,26.74,22,26.74Zm-4.69-9.9c-.07.07-.09.08-.1.1l-1.64,4.47c-.09.23,0,.28.22.28,1,0,1.92,0,2.88,0,.32,0,.31-.13.22-.37L17.7,18C17.57,17.64,17.44,17.26,17.29,16.84Z"/><path class="cls-1" d="M24.44,21.94c0-1.47,0-2.93,0-4.4,0-.31.09-.42.41-.41.57,0,1.14,0,1.7,0,.37,0,.41.16.41.46v5.76c0,1,0,2,0,2.95,0,.35-.11.46-.45.44q-.86,0-1.71,0c-.29,0-.36-.1-.36-.37C24.44,24.89,24.44,23.41,24.44,21.94Z"/><path class="cls-1" d="M25.67,15.88c-.31,0-.61,0-.91,0s-.33-.05-.33-.3q0-.95,0-1.89c0-.21.08-.29.29-.29h1.93c.22,0,.3.09.29.29,0,.63,0,1.26,0,1.9,0,.23-.12.3-.34.29S26,15.88,25.67,15.88Z"/></g></g></svg>