<svg xmlns="http://www.w3.org/2000/svg" viewBox="0 0 38.87 38.87"><defs><style>.cls-1{fill:#8d8dd6;}</style></defs><title>indesign</title><g id="Capa_2" data-name="Capa 2"><g id="iconos"><path class="cls-1" d="M0,0h38.5c.29,0,.35.06.35.35q0,19.25,0,38.5l-.45,0H.53c-.6,0-.53.07-.53-.53V.46C0,.31,0,.16,0,0ZM36.57,19.43q0-8.34,0-16.69c0-.37-.1-.45-.46-.45H2.74c-.33,0-.44.08-.44.43q0,16.71,0,33.42c0,.35.11.43.44.43H36.12c.36,0,.46-.08.46-.45Q36.57,27.78,36.57,19.43Z"/><path class="cls-1" d="M24.56,25.19a3.73,3.73,0,0,1-2.3,1.6,4.19,4.19,0,0,1-4.45-1.58,5.6,5.6,0,0,1,.1-6.73,3.87,3.87,0,0,1,6.14,0l.14.15c0-.18,0-.31,0-.44,0-1.48,0-3,0-4.44,0-.3.08-.4.38-.39.58,0,1.17,0,1.75,0,.35,0,.38.16.38.43,0,2.42,0,4.83,0,7.25,0,.88,0,1.77,0,2.65a.86.86,0,0,0,.35.76.49.49,0,0,1,.21.48c0,.5,0,1,0,1.48,0,.18,0,.3-.23.32a4.92,4.92,0,0,1-.94.1C25.18,26.8,24.72,26.33,24.56,25.19Zm-.35-3.09v-1a.66.66,0,0,0-.07-.36,3.25,3.25,0,0,0-1.4-1.44,2.08,2.08,0,0,0-2.29.21,3,3,0,0,0-.06,4.7,2.27,2.27,0,0,0,2.56.29,2,2,0,0,0,1.27-2.11A1.9,1.9,0,0,1,24.21,22.1Z"/><path class="cls-1" d="M15,20.23v6c0,.66,0,.53-.56.54s-1.06,0-1.59,0c-.34,0-.43-.09-.43-.42,0-3,0-6.07,0-9.11,0-1,0-2,0-3.07,0-.3.09-.39.39-.39.59,0,1.18,0,1.78,0,.32,0,.41.11.41.42C15,16.19,15,18.21,15,20.23Z"/></g></g></svg>