<svg xmlns="http://www.w3.org/2000/svg" viewBox="0 0 38.8 38.8"><defs><style>.cls-1{fill:#8d8dd6;}</style></defs><title>javascript</title><g id="Capa_2" data-name="Capa 2"><g id="iconos"><path class="cls-1" d="M0,0V38.8H38.8V0ZM21.13,30.29c0,3.77-2.21,5.5-5.43,5.5a5.65,5.65,0,0,1-5.46-3.34l3-1.79c.57,1,1.09,1.87,2.34,1.87s1.95-.47,1.95-2.3V17.84h3.64V30.29Zm8.65,5.47A7,7,0,0,1,23.14,32l3-1.72a4,4,0,0,0,3.59,2.22c1.51,0,2.48-.76,2.48-1.8,0-1.25-1-1.69-2.66-2.43l-.91-.39c-2.63-1.12-4.37-2.53-4.37-5.5,0-2.73,2.08-4.81,5.33-4.81a5.36,5.36,0,0,1,5.18,2.92l-2.84,1.81a2.48,2.48,0,0,0-2.35-1.55,1.58,1.58,0,0,0-1.74,1.55c0,1.1.68,1.54,2.25,2.22L31,25c3.11,1.33,4.85,2.69,4.85,5.73,0,3.28-2.58,5.08-6,5.08Z"/></g></g></svg>