<svg xmlns="http://www.w3.org/2000/svg" viewBox="0 0 30.56 41.45"><defs><style>.cls-1{fill:#8d8dd6;}</style></defs><title>java</title><g id="Capa_2" data-name="Capa 2"><g id="iconos"><path class="cls-1" d="M22.24,25.33a13.55,13.55,0,0,1,1.9-1s-3.13.56-6.25.82a57.17,57.17,0,0,1-10,.11c-4.86-.65,2.68-2.44,2.68-2.44a14.41,14.41,0,0,0-6.53,1.54C-.18,26.41,14.59,27.34,22.24,25.33Zm-6.91-2.6c-1.54-3.46-6.73-6.49,0-11.8C23.72,4.31,19.42,0,19.42,0c1.74,6.84-6.12,8.91-9,13.16C8.52,16.07,11.4,19.19,15.33,22.73ZM24.61,8.47S10.43,12,17.2,19.82c2,2.3-.53,4.37-.53,4.37s5.08-2.63,2.75-5.9C17.24,15.23,15.57,13.7,24.61,8.47Zm-.5,21.89a.83.83,0,0,1-.16.21c10.39-2.72,6.57-9.62,1.6-7.87a1.38,1.38,0,0,0-.66.51,4.69,4.69,0,0,1,.89-.24c2.51-.53,6.11,3.35-1.67,7.39Zm3.82,5s1.17,1-1.29,1.71C22,38.54,7.15,39,3,37.18c-1.48-.64,1.29-1.54,2.17-1.72a5.84,5.84,0,0,1,1.43-.17C5,34.14-4,37.57,2.08,38.55,18.61,41.24,32.22,37.34,27.93,35.41ZM9.83,32.06c-6.37,1.78,3.88,5.45,12,2a15.05,15.05,0,0,1-2.28-1.12,23.7,23.7,0,0,1-8.58.37C8.25,33,9.83,32.06,9.83,32.06Zm14.56,7.86a61.63,61.63,0,0,1-18.89.3s1,.78,5.86,1.1c7.47.47,18.93-.27,19.2-3.8,0,0-.52,1.34-6.17,2.4ZM20.86,28.58a33.6,33.6,0,0,1-11.07.53c-2.72-.28-.94-1.6-.94-1.6-7,2.34,3.9,5,13.72,2.1A4.89,4.89,0,0,1,20.86,28.58Z"/></g></g></svg>