<svg xmlns="http://www.w3.org/2000/svg" viewBox="0 0 38.85 38.84"><defs><style>.cls-1{fill:#8d8dd6;}</style></defs><title>photoshop</title><g id="Capa_2" data-name="Capa 2"><g id="iconos"><path class="cls-1" d="M0,38.84V0H38.85V38.84H0Zm36.55-2.29V2.28H2.29V36.55Z"/><path class="cls-1" d="M13.2,22.36v4.3H10.74V13.85a.51.51,0,0,1,.34,0c1.69,0,3.39,0,5.08,0a4.22,4.22,0,0,1,4.08,3.81,4.27,4.27,0,0,1-3.12,4.64,8.43,8.43,0,0,1-1.81.11Zm0-2.2c1.06,0,2.09,0,3.12,0a1.15,1.15,0,0,0,.82-.43,2.27,2.27,0,0,0,.6-1.67A1.9,1.9,0,0,0,15.66,16H13.21Z"/><path class="cls-1" d="M28.84,18.34l-.91,1.37c-.34-.19-.66-.39-1-.56a3.78,3.78,0,0,0-2.12-.43,1.52,1.52,0,0,0-.68.22.89.89,0,0,0-.06,1.52,3.43,3.43,0,0,0,1.23.48,12.29,12.29,0,0,1,1.89.52q.39.16.75.36a2.55,2.55,0,0,1,0,4.45,5.55,5.55,0,0,1-3.2.56,6.71,6.71,0,0,1-3.38-1.23l-.14-.12a.59.59,0,0,1-.09-.11L22,23.91A7.66,7.66,0,0,0,24.23,25,3.5,3.5,0,0,0,26.1,25a1,1,0,0,0,.82-.89,1,1,0,0,0-.67-.91,10.75,10.75,0,0,0-2.14-.64,6.86,6.86,0,0,1-1.31-.48,2.31,2.31,0,0,1-1-3.43A3.1,3.1,0,0,1,24,17.13a5.51,5.51,0,0,1,4.53.91A.59.59,0,0,1,28.84,18.34Z"/></g></g></svg>