<svg xmlns="http://www.w3.org/2000/svg" viewBox="0 0 55.43 29.15"><defs><style>.cls-1{fill:#8d8dd6;}</style></defs><title>php</title><g id="Capa_2" data-name="Capa 2"><g id="iconos"><path class="cls-1" d="M27.71,1.45C42.56,1.45,54,7.71,54,14.58S42.55,27.7,27.71,27.7,1.45,21.44,1.45,14.58,12.88,1.45,27.71,1.45m0-1.45C12.41,0,0,6.52,0,14.58S12.41,29.15,27.71,29.15s27.72-6.52,27.72-14.57S43,0,27.71,0ZM18.9,13.41c-.69,3.5-3.1,3.14-6.07,3.14L14,10.44c3.29,0,5.53-.36,4.89,3ZM8.42,22.78h3.19l.75-3.89c3.57,0,5.78.26,7.83-1.66,2.26-2.08,2.85-5.78,1.24-7.64a5.09,5.09,0,0,0-4-1.45H11.26ZM24.51,4.24h3.17l-.76,3.89c2.74,0,5.27-.2,6.5.93s.66,2.69-.72,9.82H29.48c1.34-6.89,1.59-7.47,1.11-8s-1.54-.4-4.12-.4l-1.63,8.39H21.67L24.51,4.24Zm19.23,9.17c-.7,3.56-3.18,3.14-6.08,3.14l1.19-6.11c3.31,0,5.53-.36,4.89,3ZM33.26,22.78h3.19l.76-3.89c3.75,0,5.82.22,7.82-1.66,2.27-2.08,2.86-5.78,1.24-7.64a5.07,5.07,0,0,0-4-1.45H36.11Z"/></g></g></svg>