<svg xmlns="http://www.w3.org/2000/svg" viewBox="0 0 38.81 38.77"><defs><style>.cls-1{fill:#8d8dd6;}</style></defs><title>python</title><g id="Capa_2" data-name="Capa 2"><g id="iconos"><path class="cls-1" d="M38.1,14.58c-.67-2.68-1.93-4.7-4.63-4.7H30V14a5.93,5.93,0,0,1-5.77,5.86H15a4.73,4.73,0,0,0-4.64,4.7v8.82c0,2.51,2.19,4,4.64,4.7a15.52,15.52,0,0,0,9.26,0c2.34-.67,4.64-2,4.64-4.7V29.89H19.6V28.67H33.47c2.7,0,3.69-1.87,4.63-4.69s.92-5.69,0-9.4ZM24.81,32.23a1.76,1.76,0,0,1,0,3.52,1.76,1.76,0,0,1,0-3.52ZM14.55,18.72H23.8A4.67,4.67,0,0,0,28.43,14V5.19C28.43,2.68,26.32.8,23.8.37a28.8,28.8,0,0,0-9.27,0C10.61,1.07,9.9,2.52,9.9,5.2V8.76h9.27V9.88H6.43a5.78,5.78,0,0,0-5.78,4.7,17.35,17.35,0,0,0,0,9.4c.66,2.74,2.23,4.69,4.92,4.69h3.2V24.46a5.87,5.87,0,0,1,5.78-5.74ZM14,6.37a1.76,1.76,0,0,1,0-3.52,1.77,1.77,0,0,1,1.74,1.77A1.74,1.74,0,0,1,14,6.37Z"/></g></g></svg>