<svg xmlns="http://www.w3.org/2000/svg" viewBox="0 0 38.03 38.05"><defs><style>.cls-1{fill:#8d8dd6;}</style></defs><title>typescript</title><g id="Capa_2" data-name="Capa 2"><g id="iconos"><path class="cls-1" d="M38,3.07V35a3.85,3.85,0,0,1-3.05,3H3a3.83,3.83,0,0,1-3-3V3.07c0-.15.08-.31.13-.46A3.72,3.72,0,0,1,3.61,0H34.42a3.54,3.54,0,0,1,1.2.22A3.84,3.84,0,0,1,38,3.07ZM23.57,30.38v2.54c0,1.16,0,1.16,1.11,1.48a12.55,12.55,0,0,0,5,.42,7.71,7.71,0,0,0,3.1-.94c2.51-1.44,2.55-4.93,1.28-6.58a6.56,6.56,0,0,0-2.55-1.93c-.87-.41-1.75-.81-2.62-1.23a3,3,0,0,1-1.21-.95,1.36,1.36,0,0,1,.21-1.9,2.51,2.51,0,0,1,1.2-.56,7,7,0,0,1,4.7.8c.28.14.36.11.36-.21,0-.82,0-1.64,0-2.45a.58.58,0,0,0-.52-.67,11.52,11.52,0,0,0-2.74-.44,9.92,9.92,0,0,0-4.75.76,4.54,4.54,0,0,0-.78,7.8,12,12,0,0,0,2.31,1.25A11.34,11.34,0,0,1,30,28.7a1.8,1.8,0,0,1,1,1.84c-.16.88-.86,1.19-1.63,1.36a6.26,6.26,0,0,1-3-.11A7.4,7.4,0,0,1,23.57,30.38Zm-10-2.5v6.28c0,.52,0,.52.51.52h2.64c.52,0,.53,0,.54-.54V21.67c0-.58,0-.58.58-.58h3.82c.28,0,.41-.09.4-.39q0-1.11,0-2.22c0-.3-.11-.39-.4-.39H9.2c-.3,0-.42.1-.41.41,0,.69,0,1.38,0,2.08,0,.49,0,.5.5.5,1.26,0,2.52,0,3.78,0,.38,0,.48.12.48.49Q13.53,24.73,13.54,27.88Z"/></g></g></svg>