<svg xmlns="http://www.w3.org/2000/svg" viewBox="0 0 38.7 38.7"><defs><style>.cls-1{fill:#8d8dd6;}</style></defs><title>vs-code</title><g id="Capa_2" data-name="Capa 2"><g id="iconos"><path class="cls-1" d="M27.86,0h.86c2.76,1.17,5.4,2.58,8.12,3.83A3.62,3.62,0,0,1,38.7,5.5V33.2a3.12,3.12,0,0,1-1.26,1.36c-2.9,1.39-5.76,2.86-8.72,4.14h-.86a5.2,5.2,0,0,1-1.71-1.11C21.46,33.3,16.75,29,12.07,24.72a1,1,0,0,0-1.51,0C8.71,26.13,6.83,27.53,5,28.94A1.61,1.61,0,0,1,2.68,29,17.35,17.35,0,0,1,0,26.49V25.11c1.62-1.78,3.51-3.29,5.26-4.93.9-.85.9-.82,0-1.66C3.51,16.88,1.63,15.37,0,13.59V12.21A17,17,0,0,1,2.28,10a1.81,1.81,0,0,1,2.81-.15c1.81,1.36,3.63,2.71,5.4,4.11a1,1,0,0,0,1.65,0C16.72,9.68,21.35,5.49,26,1.27A5.56,5.56,0,0,1,27.86,0Zm1.05,19.34q0-3.78,0-7.56c0-.24.09-.56-.21-.68s-.41.16-.59.29c-3.29,2.49-6.56,5-9.86,7.47-.53.4-.5.61,0,1,3.27,2.46,6.52,4.94,9.79,7.41.2.15.39.44.66.33s.2-.5.2-.77Q28.92,23.08,28.91,19.34Z"/></g></g></svg>