<svg xmlns="http://www.w3.org/2000/svg" viewBox="0 0 39.15 39.15"><defs><style>.cls-1{fill:#8d8dd6;}</style></defs><title>wordpress</title><g id="Capa_2" data-name="Capa 2"><g id="iconos"><path class="cls-1" d="M4.24,12.74l8,21.94a16.8,16.8,0,0,1-8-21.94Zm26.67,6a8.82,8.82,0,0,0-1.38-4.63c-.86-1.38-1.65-2.56-1.65-3.94a2.91,2.91,0,0,1,2.82-3l.22,0A16.8,16.8,0,0,0,5.54,10.35l1.08,0c1.75,0,4.48-.21,4.48-.21a.69.69,0,0,1,.11,1.38s-.91.1-1.92.16l6.12,18.18,3.68-11L16.47,11.7c-.91-.06-1.76-.16-1.76-.16a.69.69,0,0,1,.11-1.38s2.77.21,4.42.21,4.47-.21,4.47-.21a.69.69,0,0,1,.11,1.38s-.91.1-1.92.16L28,29.75l1.68-5.6a20.67,20.67,0,0,0,1.26-5.42ZM19.87,21l-5,14.64a16.52,16.52,0,0,0,4.74.69,16.89,16.89,0,0,0,5.58-.95,1.27,1.27,0,0,1-.12-.23Zm14.44-9.52a13.09,13.09,0,0,1,.11,1.72,15.65,15.65,0,0,1-1.28,6L28,34.09a16.81,16.81,0,0,0,6.3-22.57Zm4.84,8.05A19.58,19.58,0,1,1,19.57,0,19.6,19.6,0,0,1,39.15,19.57Zm-.9,0A18.68,18.68,0,1,0,19.57,38.25,18.69,18.69,0,0,0,38.25,19.57Z"/></g></g></svg>